<svg xmlns="http://www.w3.org/2000/svg" viewBox="0 0 570.72 78.56"><defs><style>.cls-1,.cls-6{fill:none;stroke-width:2px;}.cls-1,.cls-7{stroke:#000;}.cls-1,.cls-5,.cls-6,.cls-7{stroke-miterlimit:10;}.cls-2{fill:#231f20;}.cls-3,.cls-7{fill:#de2627;}.cls-4,.cls-5{fill:#fff;}.cls-5{stroke:#fff;}.cls-6{stroke:#cccccb;}.cls-7{font-size:39.94px;font-family:Arial-BoldMT, Arial;font-weight:700;}</style></defs><g id="Layer_2" data-name="Layer 2"><g id="stacked_logo" data-name="stacked logo"><path class="cls-1" d="M18.26,41S22.5,7.48,24.11,6.37l-4,34.25"/><path class="cls-1" d="M26.37,5.77s1.64,27,.46,29"/><path class="cls-1" d="M26.35,6.64A183.28,183.28,0,0,1,29.29,32.4"/><path class="cls-2" d="M22.34,31.69a21.9,21.9,0,0,1-11.87-.17s-.17,1.38-1.06,1.53a47.86,47.86,0,0,0-.59,10.84,1.64,1.64,0,0,0,.75.37S-.7,54.86,0,56.54a24.56,24.56,0,0,1,.35,9.78A10.87,10.87,0,0,0,8.21,76s7.58-.41,12.09,1.41c0,0,8.76-.22,7.66-6.85,0,0,10.57,4.38,19.22-1.48,0,0,3.52-2,.13-8.15,0,0,4.88-4.64-.62-11.71,0,0-4-7.14-7.76-8.59a5.88,5.88,0,0,0-.34-3A55.63,55.63,0,0,0,35.79,32s-1.13-1.55-.1-2.56c0,0,.4-4.06-1.08-4.63a75.83,75.83,0,0,0-12,5.94s.59.77-.31.75"/><path class="cls-3" d="M8.48,46.22s7.57-1.89,11.28-.89c0,0,4.12-.09,3.18,1.85,0,0-2.07,3.5-.57,9.44,0,0,1.29,6.17-2.65,3.14,0,0-2.12-.75,0,1.37l1.55,1.15-.48,1.16,1.3.86L19.33,65s0,.92,3,.72c0,0,1.39,1-.2,2.44,0,0-1.19.35.25.75,0,0,4.68.65-1.7,4.32a3.57,3.57,0,0,0,2.88-.95s1,1.18-3.24,3.32c0,0,1.81-1.29,0-1.3s-1.71.38-4.39-.89c0,0-.14.16,2.53-.55a37.44,37.44,0,0,1-6.83-.34s-.84.17,1.13,1.35L13,74c2.22,1.28-7-.18-7.87-3.72,0,0,.2,3.19-2-.53,0,0-2.85-1.94-1.59-4.26,0,0,.69-3.37,1.77-.68,0,0,.19-.92,1.18-.43,0,0-.09-6.22-.94-6.87,0,0-2.78-1-1.28-3.48a3.5,3.5,0,0,1,.23-.35c2-2.74,5.63-5.54,5.93-7.45"/><path class="cls-4" d="M10.08,33.4s.63,4.61-.6,5.87l.14,3.41s-.65.71,3.3.25c0,0,10.12.07,10.52.73l.89-8.08s2.22-2.59-1.89-1.45c0,0-8.49.49-12.36-.73"/><path class="cls-3" d="M31.7,40s-5-.11-3.08,7.72c0,0-2.63,5.57-1.9,9A11.3,11.3,0,0,1,27.87,65S33.76,77.59,44,66.79c0,0,.13,1.51,1,1.25s0-.23,0-.23.49-2.9,1.24-2.86,0-.45,0-.45-1.69.75-2,1.52c0,0-.58-1.67-.83,0A5.44,5.44,0,0,0,42,67.66a.88.88,0,0,0-.06.27c-.07.82-.35-1.2.58-2.22,0,0-1.43-.25-.84-.58,0,0-.89,2.16-2.31,2.45l1.14-1.64s.4-1.39-1.19.19c0,0-1.23,1.27-2,.39,0,0,3.69-1.44-.19-1.06a4.5,4.5,0,0,0,2.62-1.85s1-.19-2.18-.29c0,0,.59-.25-.19-.91l2.92-.19s1.48-6.13-3.38-4.12c0,0,1.49-2.18-2.47.1,0,0,.6-1.85-2,.08,0,0,.78-1.39-1.79.37,0,0,.57-1.2-1,0,0,0,1-2.73,5.27-3.15,0,0-.59-1.74-2.16-1.6,0,0-3.16-2.31-.74-1.72l1.45.7-.54-2.18s1.45.48,1.71,1.45c0,0-1.19-3.52.38-3.73a6.17,6.17,0,0,0,1.17,4.66c.06.08.13.15.19.22,1.91,2,.24-2.21.24-2.21S38,53.65,38,52.82c0,0-.31-2,.59-2.07,0,0-.05,2.58,0,3s.79-2.69,2.13-3.05c0,0-.85,1.66-.56,2.21a.29.29,0,0,0,.2.16c.76.2,1.12-.27,1.8,0,0,0-3.46,1.54-1.86,2.29l2.15-.71s-3.69,1.51,1.14,2.46c0,0-.29.73-2.22.77,0,0,1.35-.13,2.18,2.12l.76.12a6.87,6.87,0,0,0,2.93-3.68S48.8,52,45.17,49.27a2.83,2.83,0,0,0-3-2.08s-2.29-6.68-6.43-7.35c0,0-2.48-2-4,.16"/><path class="cls-4" d="M23.2,31.6s.33-1.08,3.15-1.87,0-.31,0-.31,4.39-.77,6.13-2.36a12.29,12.29,0,0,1,.6,2.07s.75-3.95.82,0c0,0,1.47,3,.61,3.89,0,0-.36.47-.55-.51l.38,4.09A8.57,8.57,0,0,1,29.6,38S27,39.57,27,35.55c0,0,.28-2.44-1.05-2.08s1.55-2.49-1.35-1.92c0,0-1.69.52-1.35.05"/><ellipse class="cls-1" cx="35.15" cy="4.63" rx="8.13" ry="3.63"/><ellipse class="cls-1" cx="15.91" cy="4.63" rx="8.13" ry="3.63"/><path d="M29.51,4.53c0,1.62-1.61,2.94-3.6,2.94s-3.6-1.32-3.6-2.94,1.61-2.95,3.6-2.95,3.6,1.32,3.6,3"/><path class="cls-5" d="M25.75,1.47A4,4,0,0,0,24,6.32,3.23,3.23,0,0,1,25.75,1.47Z"/><path class="cls-5" d="M24.16,2.43S28,3.61,27.33,6.86A6.72,6.72,0,0,0,24.16,2.43Z"/><text/><path class="cls-6" d="M395.84,22.84s1.07-8-8.56-8c-4.82,0-7.57,2-9.11,4.37a20.42,20.42,0,0,0-2.4,11.54c.66,9,9.66,14.82,17.66,11.91,3-1.94,6-4.85,3-9.7-7-6.79-19-3.88-26,1.94-10,10.67-8,27.16,3,35.89,14,10.67,35,8.73,46-5.82,5-6.79,5-17.46-3-22.31-9-4.85-23,2.91-21,12.61,1,8.73,11,18.43,20.95,17"/><text class="cls-7" transform="translate(31.25 55.81) scale(1.19 1)">Boston Boxing</text><text class="cls-7" transform="translate(403.25 55.81) scale(1.19 1)">Fitness</text></g></g></svg>