<?xml version="1.0"?>
<svg xmlns="http://www.w3.org/2000/svg" viewBox="0 0 512 512" width="512" height="512"><g id="Out_line" data-name="Out line"><path d="M376.84473,227.57764a168.70944,168.70944,0,0,1,16.56054,96.68115l-1.34375,10.749,15.877,1.98438,1.34375-10.749a184.66478,184.66478,0,0,0-18.127-105.8208Z"/><path d="M493.292,252.186,490.14258,239.585a31.15372,31.15372,0,0,0-14.69727-19.40137l-38.2456-21.85547a33.5035,33.5035,0,0,0-44.04541-6.04541l-7.29492,4.8628L366.5293,171.37207l-31.873-47.80957a8.00089,8.00089,0,0,0-9.46484-3.05322l-64,24a8.00052,8.00052,0,0,0-3.84766,11.92822l7.89844,11.84766A26.12615,26.12615,0,0,0,288,179.81628v2.88538l-7.58984,22.76855A8,8,0,0,0,288,216h10.23438L302.04,227.41809a27.94506,27.94506,0,0,0-8.709,14.27332L290.9834,251.084a28.13884,28.13884,0,0,0,3.19238,21.23047l-2.90918,4.36377A38.92292,38.92292,0,0,0,287.27637,312H280a8.03038,8.03038,0,0,0-1.56934.15527l-30.62109,6.12427A7.99974,7.99974,0,0,0,240,312H213.76636l-4.35327-13.05957a15.973,15.973,0,0,0-11.63575-10.53809c.08643-34.76068,1.14673-69.87487,3.1836-104.5083l7.02539-119.42431A8.00059,8.00059,0,0,0,200,56H128V32H240V16H8V32H112V56H40a8.00068,8.00068,0,0,0-7.98633,7.53027L24.98828,182.95459A1877.61294,1877.61294,0,0,0,32.044,488.8374,8.00023,8.00023,0,0,0,40,496H200a8.00045,8.00045,0,0,0,7.95605-8.8374c-3.8728-36.7898-6.65722-74.14038-8.31958-111.1626H240a7.99811,7.99811,0,0,0,7.94141-7.06824l63.1748,7.01941a8.12469,8.12469,0,0,0,.8877.04932,8.00013,8.00013,0,0,0,7.42382-5.0293l12.06641-30.166a25.97308,25.97308,0,0,1,8.03467-10.76673L352,346.6665V368a8.00008,8.00008,0,0,0-8,8v30.35718l-23.35352,54.49145A7.99916,7.99916,0,0,0,320,464v24h16V465.64209L357.27539,416h84.166l14.71386,73.56885,15.68946-3.1377L456,407.20752V376a8.00008,8.00008,0,0,0-8-8V336.36279l4.33008-47.6322a30.70772,30.70772,0,0,0,10.78613,1.96033A30.97912,30.97912,0,0,0,493.292,252.186ZM191.51562,72l-.9414,16H46.60181L47.543,72ZM47.2168,480q-.8097-7.99292-1.53955-16h143.928q.73426,8.01159,1.52955,16Zm140.99487-32H44.27515a1862.27045,1862.27045,0,0,1-3.31421-264.106L45.66064,104H189.63306l-4.64478,78.95459c-1.51416,25.7511-2.48755,51.76654-2.93628,77.70874L114.29883,240.3374l-4.59766,15.3252,72.1355,21.64062q-.045,5.354-.05835,10.69678H176a16.00861,16.00861,0,0,0-13.85254,8H152a24.00383,24.00383,0,0,0-4.626.4519l-50.05859-8.343-2.63086,15.78222,35.58691,5.931A23.85352,23.85352,0,0,0,128,320v8H88v16h40v8a23.92572,23.92572,0,0,0,7.28711,17.20093L93.26562,384.48145l5.46876,15.0371L163.4104,376h20.2085C184.68433,399.94092,186.21973,424.01685,188.21167,448ZM200,360H152a8.00917,8.00917,0,0,1-8-8V320a8.00917,8.00917,0,0,1,8-8h8v8a8,8,0,0,0,16,0V304h18.2334L200,321.29834Zm78.55469-200.58984-2.30567-3.45948,48.61621-18.231,21.14844,31.72216a25.16452,25.16452,0,0,1-17.39062-10.92822l-1.96582-2.95068a7.99546,7.99546,0,0,0-9.62793-2.99072L290.58887,163.148A10.04454,10.04454,0,0,1,278.55469,159.41016ZM232,360H216V328h16Zm208,40H360V384h80Zm-72-32V344a8.00222,8.00222,0,0,0-1.59961-4.7998l-14.98828-19.98438A42.0074,42.0074,0,0,0,360,293.74805V283.31348l5.65723-5.65674a8.00018,8.00018,0,0,0-11.31446-11.31348L348.68652,272H328v16h16v5.748a26.05421,26.05421,0,0,1-11.624,21.72021,41.91613,41.91613,0,0,0-15.73731,19.39551L306.833,359.37646,248,352.8396v-18.281L280.792,328H296a8.00008,8.00008,0,0,0,8-8v-8a7.99583,7.99583,0,0,0-.84473-3.57764,22.87441,22.87441,0,0,1,1.42383-22.86914l6.07715-9.11572a8.00008,8.00008,0,0,0-.999-10.09424,12.04157,12.04157,0,0,1-3.15137-11.37939l2.34668-9.39209a11.96182,11.96182,0,0,1,8.71875-8.71826l20.36914-5.09229a7.99863,7.99863,0,0,0,5.21484-4.18359l8-16-14.31054-7.15528-6.3545,12.709-13.85839,3.46435-5.042-15.12549A8.00071,8.00071,0,0,0,304,200h-4.90039l4.49023-13.47021A8.0122,8.0122,0,0,0,304,184v-8.98395l13.0459-5.2182a41.12477,41.12477,0,0,0,39.7373,15.24677l20.81641,27.75518a8.00028,8.00028,0,0,0,10.83789,1.85645l13.5918-9.06055a17.46165,17.46165,0,0,1,15.30859-2.0498,17.65847,17.65847,0,0,1,11.11621,11.11621,171.70362,171.70362,0,0,1,8.15625,70.26611l-4.57715,50.34766Q431.99951,335.637,432,336v32Zm107.69824-99.96924a15.07525,15.07525,0,0,1-18.05957,5.60889l-4.33081-1.7323a186.94465,186.94465,0,0,0-5.85278-49.29059l20.05176,11.45892a15.07513,15.07513,0,0,1,7.11328,9.38916l3.15039,12.602A15.04108,15.04108,0,0,1,475.69824,268.03076Z"/><rect x="382.11146" y="464.00016" width="35.77709" height="15.99968" transform="translate(-201.05507 618.68606) rotate(-63.43495)"/><rect x="126.11146" y="407.99994" width="35.77709" height="16.00011" transform="translate(-170.85517 108.33423) rotate(-26.56818)"/></g></svg>
