<?xml version="1.0"?>
<svg xmlns="http://www.w3.org/2000/svg" viewBox="0 0 512 512" width="512" height="512"><g id="Out_line" data-name="Out line"><rect x="-10.21811" y="215.99994" width="228.43623" height="16.00013" transform="translate(-136.04545 282.05325) rotate(-78.69075)"/><path d="M495.84473,422.43115l-72-360-.01172.00238A7.96608,7.96608,0,0,0,416,56h-8V48a32,32,0,0,0-64,0V64a32.03635,32.03635,0,0,0,32,32V80a16.01833,16.01833,0,0,1-16-16V48a16,16,0,0,1,32,0v8H376V72h30.24121L353.75488,334.43115l15.68946,3.1377L416,104.79242l59.938,299.69122-55.02686-42.79858a7.99976,7.99976,0,0,0-9.82226,0l-10.28614,8,9.82227,12.62988L416,378.13477,464.68408,416H416v16h72a8.00053,8.00053,0,0,0,7.84473-9.56885Z"/><path d="M136,96V80a16.01833,16.01833,0,0,1-16-16V48a16.01595,16.01595,0,0,1,21.334-15.09131l5.332-15.08594A32.01724,32.01724,0,0,0,104,48V64A32.03635,32.03635,0,0,0,136,96Z"/><path d="M184,96V80a16.01833,16.01833,0,0,1-16-16V48a16.01595,16.01595,0,0,1,21.334-15.09131l5.332-15.08594A32.01724,32.01724,0,0,0,152,48V64A32.03635,32.03635,0,0,0,184,96Z"/><path d="M232,96V80a16.01833,16.01833,0,0,1-16-16V48a16.01595,16.01595,0,0,1,21.334-15.09131l5.332-15.08594A32.01724,32.01724,0,0,0,200,48V64A32.03635,32.03635,0,0,0,232,96Z"/><path d="M280,96V80a16.01833,16.01833,0,0,1-16-16V48a16.01595,16.01595,0,0,1,21.334-15.09131l5.332-15.08594A32.01724,32.01724,0,0,0,248,48V64A32.03635,32.03635,0,0,0,280,96Z"/><path d="M328,96V80a16.01833,16.01833,0,0,1-16-16V48a16.01595,16.01595,0,0,1,21.334-15.09131l5.332-15.08594A32.01724,32.01724,0,0,0,296,48V64A32.03635,32.03635,0,0,0,328,96Z"/><path d="M256.58984,264H212.21a8.00041,8.00041,0,0,0-7.84473,6.43115l-8,40A8.00053,8.00053,0,0,0,204.21,320h44.37988a8.00041,8.00041,0,0,0,7.84473-6.43115l8-40A8.00051,8.00051,0,0,0,256.58984,264Zm-14.55859,40h-28.0625l4.7998-24h28.0625Z"/><path d="M348.73047,192H304.33984a8.0004,8.0004,0,0,0-7.84472,6.43115l-8,40A8.00051,8.00051,0,0,0,296.33984,248h44.39063a8.00041,8.00041,0,0,0,7.84473-6.43115l8-40A8.00053,8.00053,0,0,0,348.73047,192Zm-14.55859,40H306.09863l4.79981-24h28.07324Z"/><path d="M241.00977,120a8.00041,8.00041,0,0,0-7.84473,6.43115l-8,40A8.00051,8.00051,0,0,0,233.00977,176h44.38085a8.00041,8.00041,0,0,0,7.84473-6.43115l8-40A8.00051,8.00051,0,0,0,285.39062,120ZM270.832,160H242.76855l4.79981-24h28.06348Z"/><path d="M362.97461,169.56885l8-40A8.00051,8.00051,0,0,0,363.12988,120H318.74023a8.0004,8.0004,0,0,0-7.84472,6.43115l-8,40A8.00051,8.00051,0,0,0,310.74023,176h44.38965A8.00041,8.00041,0,0,0,362.97461,169.56885ZM348.57129,160H320.499l4.79981-24h28.07226Z"/><path d="M270.835,241.56885l8-40A8.00051,8.00051,0,0,0,270.99023,192H226.60938a8.00041,8.00041,0,0,0-7.84473,6.43115l-8,40A8.00051,8.00051,0,0,0,218.60938,248h44.38085A8.00041,8.00041,0,0,0,270.835,241.56885ZM256.43164,232H228.36816l4.79981-24h28.06348Z"/><path d="M141.4248,198.43115l-8,40A8.00053,8.00053,0,0,0,141.26953,248h44.39063a8.0004,8.0004,0,0,0,7.84472-6.43115l8-40A8.00051,8.00051,0,0,0,193.66016,192H149.26953A8.00041,8.00041,0,0,0,141.4248,198.43115ZM155.82812,208h28.07325l-4.79981,24H151.02832Z"/><path d="M179.25977,264H134.87012a8.00041,8.00041,0,0,0-7.84473,6.43115l-8,40A8.00051,8.00051,0,0,0,126.87012,320h44.38965a8.0004,8.0004,0,0,0,7.84472-6.43115l8-40A8.00051,8.00051,0,0,0,179.25977,264Zm-14.5586,40H136.62891l4.7998-24H169.501Z"/><path d="M152,480a56,56,0,1,1,37.03906-98.002L199.627,370.002A71.91733,71.91733,0,0,0,152,352H88a72,72,0,0,0,0,144h64a71.91733,71.91733,0,0,0,47.62695-18.002L189.03906,466.002A55.9275,55.9275,0,0,1,152,480ZM80,424a71.82923,71.82923,0,0,0,24.08691,53.68335,55.98913,55.98913,0,0,1,0-107.3667A71.82923,71.82923,0,0,0,80,424Zm-48,0a56.09049,56.09049,0,0,1,40.08691-53.68335,71.86645,71.86645,0,0,0,0,107.3667A56.09049,56.09049,0,0,1,32,424Z"/><path d="M328,352H264a72.11343,72.11343,0,0,0-67.87158,48H152a24,24,0,0,0,0,48h44.12842A72.11343,72.11343,0,0,0,264,496h64a72,72,0,0,0,0-144Zm-88,72a56.09049,56.09049,0,0,1,40.08691-53.68335,71.86645,71.86645,0,0,0,0,107.3667A56.09049,56.09049,0,0,1,240,424Zm-88,8a8,8,0,0,1,0-16h40.45508a70.54485,70.54485,0,0,0,0,16Zm56-8a56.09049,56.09049,0,0,1,40.08691-53.68335,71.86645,71.86645,0,0,0,0,107.3667A56.09049,56.09049,0,0,1,208,424Zm120,56a56,56,0,1,1,56-56A56.06322,56.06322,0,0,1,328,480Z"/><path d="M344,400H328a24,24,0,0,0,0,48h16a24,24,0,0,0,0-48Zm0,32H328a8,8,0,0,1,0-16h16a8,8,0,0,1,0,16Z"/></g></svg>
