<svg xmlns="http://www.w3.org/2000/svg" viewBox="0 0 199.27 280.85"><defs><style>.cls-1,.cls-6{fill:none;stroke-width:2px;}.cls-1,.cls-5,.cls-6,.cls-7{stroke:#fff;stroke-miterlimit:10;}.cls-2{fill:#231f20;}.cls-3,.cls-7{fill:#de2627;}.cls-4,.cls-5{fill:#fff;}.cls-6{stroke-linecap:round;}</style></defs><g id="Layer_2" data-name="Layer 2"><g id="stacked_logo" data-name="stacked logo"><path class="cls-1" d="M84.87,115.18S93.38,48,96.61,45.76L88.5,114.52"/><path class="cls-1" d="M101.16,44.54s3.29,54.17.92,58.16"/><path class="cls-1" d="M101.11,46.3S105.23,65.45,107,98"/><path class="cls-2" d="M93.07,96.59a44,44,0,0,1-23.83-.33S68.9,99,67.1,99.32a96.64,96.64,0,0,0-1.18,21.78s.93.76,1.49.74c0,0-20.61,21.27-19.13,24.65,0,0,2.63,9.84.71,19.64,0,0,.28,14.4,15.71,19.4,0,0,15.21-.82,24.26,2.83,0,0,17.59-.45,15.38-13.75,0,0,21.22,8.78,38.6-3,0,0,7.06-4.05.26-16.36,0,0,9.8-9.3-1.25-23.51,0,0-8.12-14.33-15.57-17.24a11.81,11.81,0,0,0-.69-6s-4.44-9.9-5.62-11.22c0,0-2.27-3.12-.2-5.14,0,0,.81-8.15-2.17-9.3a153,153,0,0,0-24,11.92s1.19,1.55-.62,1.51"/><path class="cls-3" d="M65.23,125.77S80.44,122,87.89,124c0,0,8.27-.17,6.39,3.71,0,0-4.17,7-1.15,19,0,0,2.59,12.4-5.32,6.3,0,0-4.27-1.51,0,2.75l3.1,2.32-1,2.32,2.63,1.73L87,163.51s-.08,1.83,6.07,1.44c0,0,2.79,2-.41,4.89,0,0-2.38.71.51,1.51,0,0,9.38,1.31-3.42,8.67,0,0,2.43.67,5.79-1.9,0,0,1.9,2.36-6.51,6.66,0,0,3.62-2.58,0-2.6s-3.43.75-8.8-1.79c0,0-.29.32,5.08-1.11,0,0-8.72.34-13.73-.69,0,0-1.68.35,2.29,2.72l.39.23c4.46,2.57-14-.37-15.79-7.47,0,0,.4,6.39-4-1.07,0,0-5.72-3.89-3.19-8.56,0,0,1.39-6.77,3.56-1.36,0,0,.38-1.85,2.37-.86,0,0-.18-12.49-1.89-13.8,0,0-5.58-2-2.57-7,.14-.23.29-.47.47-.71,4-5.49,11.3-11.11,11.9-15"/><path class="cls-4" d="M68.45,100s1.26,9.25-1.2,11.79l.27,6.85s-1.3,1.42,6.64.5c0,0,20.32.13,21.12,1.47l1.78-16.24s4.46-5.2-3.8-2.9c0,0-17,1-24.81-1.47"/><path class="cls-3" d="M111.85,113.28s-10.09-.21-6.17,15.49c0,0-5.28,11.19-3.81,18,0,0,4.81,7.75,2.3,16.69,0,0,11.82,25.31,32.35,3.62,0,0,.26,3,2,2.51s0-.46,0-.46,1-5.83,2.49-5.73,0-.92,0-.92-3.4,1.51-3.94,3.05c0,0-1.16-3.35-1.66-.08,0,0-2.3,1.81-2.88,3.37a2,2,0,0,0-.13.55c-.12,1.65-.69-2.41,1.18-4.46,0,0-2.88-.5-1.7-1.16,0,0-1.79,4.34-4.62,4.91l2.28-3.29s.79-2.78-2.4.4c0,0-2.45,2.53-4,.76,0,0,7.41-2.88-.38-2.12,0,0,4-1.07,5.27-3.71,0,0,1.94-.38-4.39-.59,0,0,1.19-.5-.37-1.82l5.86-.38s3-12.31-6.8-8.27c0,0,3-4.39-5,.19,0,0,1.21-3.71-4,.16,0,0,1.56-2.79-3.58.75,0,0,1.13-2.4-2.11.08,0,0,2-5.48,10.59-6.32,0,0-1.19-3.5-4.34-3.23,0,0-6.35-4.63-1.49-3.44l2.92,1.41-1.08-4.38s2.9,1,3.43,2.91c0,0-2.38-7.07.76-7.5,0,0-1,5.3,2.36,9.37.12.15.25.29.38.44,3.82,4.12.48-4.44.48-4.44s2.9,5.07,2.84,3.39c0,0-.61-4.09,1.19-4.16,0,0-.1,5.19.08,5.94s1.6-5.4,4.28-6.11c0,0-1.72,3.33-1.13,4.44a.65.65,0,0,0,.41.31c1.52.4,2.24-.54,3.61,0,0,0-6.95,3.1-3.73,4.61l4.31-1.43s-7.41,3,2.3,4.94c0,0-.6,1.47-4.46,1.54,0,0,2.7-.25,4.38,4.26l1.52.24s4.56-2.61,5.88-7.39c0,0,3.12-8.82-4.17-14.33,0,0-1.39-4.82-6-4.19,0,0-4.59-13.4-12.92-14.75,0,0-5-4.07-8.11.32"/><path class="cls-4" d="M94.79,96.41s.67-2.16,6.32-3.75,0-.61,0-.61,8.82-1.57,12.31-4.75a22.82,22.82,0,0,1,1.21,4.15s1.5-7.92,1.65-.07c0,0,2.95,6.06,1.21,7.81,0,0-.72.94-1.09-1l.77,8.21s-4.54,3.22-9.52,3c0,0-5.14,3.1-5.31-5,0,0,.56-4.9-2.12-4.19s3.12-5-2.71-3.86c0,0-3.38,1.06-2.7.11"/><ellipse class="cls-1" cx="118.79" cy="42.27" rx="16.33" ry="7.29"/><ellipse class="cls-1" cx="80.15" cy="42.27" rx="16.33" ry="7.29"/><path class="cls-4" d="M107.47,42.05c0,3.27-3.24,5.91-7.23,5.91S93,45.32,93,42.05s3.24-5.9,7.23-5.9,7.23,2.64,7.23,5.9"/><path class="cls-5" d="M99.9,35.92a8.07,8.07,0,0,0-3.57,9.74S92.36,39.23,99.9,35.92Z"/><path class="cls-5" d="M96.72,37.85s7.66,2.37,6.37,8.89C103.09,46.74,102,40.63,96.72,37.85Z"/><path class="cls-1" d="M131.57,51.81c23.41,16.45,39.48,50.45,39.48,89.73,0,55.37-32,100.26-71.36,100.26S28.34,196.91,28.34,141.54c0-39.67,16.39-74,40.18-90.22"/><path class="cls-6" d="M105.41,203.46s.73-5.59-5.8-5.59c-3.27,0-5.13,1.37-6.18,3A14.71,14.71,0,0,0,91.8,209c.45,6.29,6.55,10.35,12,8.32,2-1.35,4.06-3.39,2-6.78-4.74-4.74-12.88-2.71-17.63,1.36a17.44,17.44,0,0,0,2,25.08,21.9,21.9,0,0,0,31.18-4.07c3.39-4.74,3.39-12.2-2-15.59-6.1-3.39-15.59,2-14.24,8.81.68,6.11,7.46,12.89,14.2,11.87"/><path class="cls-7" d="M.56,85.35a56.6,56.6,0,0,1,1.8-6.68c1-2.92,1.73-4.64,2.94-6A4.11,4.11,0,0,1,9.79,71c1.46.48,2.57,1.9,2.53,4.56l.07,0c1.41-2.34,3.49-3.34,5.55-2.66a4.71,4.71,0,0,1,3,3.57c.46,1.88.19,4.65-1.28,9.09A45.77,45.77,0,0,1,17.59,91ZM8.83,82l.36-1.11c.78-2.35.46-3.72-.66-4.09S6.56,77.16,6,79a11.85,11.85,0,0,0-.5,1.85Zm7.4,2.45a12.74,12.74,0,0,0,.58-1.58c.61-1.85.52-3.63-1-4.13s-2.56.93-3.25,3l-.44,1.33Z"/><path class="cls-7" d="M26,50c5.12,2.9,6.29,8.41,3,14.27s-8.87,7-13.29,4.51C11,66.16,9.4,60.45,12.71,54.64,16.17,48.53,21.73,47.58,26,50ZM18.63,63.36c3,1.7,5.7,1.18,7.08-1.25s.22-5-2.65-6.66-5.64-1.26-7,1.2S15.7,61.7,18.63,63.36Z"/><path class="cls-7" d="M32.27,49.45a15.62,15.62,0,0,0,4.58-3.51c1.31-1.51,1.52-2.64.83-3.24s-1.69-.18-3.85,1.21c-3.24,2.05-6.13,2.78-8.18,1-2.43-2.13-2.16-6.22,1.47-10.36a16.64,16.64,0,0,1,4.59-3.83l2.14,3.49a13.51,13.51,0,0,0-3.78,3c-1.17,1.34-1.4,2.44-.8,3s1.74,0,4.2-1.52c3.5-2.17,6-2.33,7.9-.65,2.38,2.08,2.47,6-1.73,10.85a17.94,17.94,0,0,1-5.06,4.09Z"/><path class="cls-7" d="M42,26.28l-4.41,3.4-2.51-3.26L48.59,16l2.51,3.25-4.49,3.47,8.66,11.21-4.63,3.57Z"/><path class="cls-7" d="M75.22,13c2.41,5.36.1,10.5-6,13.27S57.87,26.66,55.79,22c-2.19-4.85-.13-10.41,6-13.16C68.16,6,73.21,8.5,75.22,13ZM61.39,19.41c1.41,3.14,3.91,4.32,6.45,3.17s3.15-3.93,1.8-6.93-3.8-4.36-6.39-3.19S60,16.35,61.39,19.41Z"/><path class="cls-7" d="M81,21.1,78.61,3l6.85-.88L89.61,7.2a50.42,50.42,0,0,1,4.22,5.92h.09A58.06,58.06,0,0,1,92.5,5.53l-.56-4.28,5.3-.69,2.35,18.13-6.12.79L89,13.93a68.82,68.82,0,0,1-4.49-6.08l-.12,0c.47,2.43.89,5.15,1.27,8.09l.58,4.45Z"/><path class="cls-7" d="M112.68,1.82A56.4,56.4,0,0,1,119.49,3c3,.71,4.78,1.31,6.27,2.4a4.13,4.13,0,0,1,2,4.33c-.36,1.5-1.68,2.73-4.33,2.93l0,.06c2.47,1.2,3.65,3.19,3.15,5.3a4.71,4.71,0,0,1-3.3,3.31c-1.83.63-4.61.6-9.17-.47a47.28,47.28,0,0,1-5.53-1.61ZM115,17.35a14,14,0,0,0,1.62.43c1.89.45,3.66.2,4-1.37s-1.16-2.47-3.29-3L116,13.12Zm1.79-7.6,1.14.27c2.4.57,3.74.13,4-1s-.54-1.92-2.45-2.37a10.54,10.54,0,0,0-1.89-.33Z"/><path class="cls-7" d="M149.77,25.78c-2.85,5.14-8.35,6.38-14.24,3.12s-7.12-8.79-4.67-13.24c2.58-4.65,8.26-6.34,14.12-3.1C151.12,16,152.14,21.49,149.77,25.78Zm-13.45-7.2c-1.66,3-1.11,5.71,1.33,7.06s5,.17,6.63-2.72,1.2-5.65-1.28-7S138,15.64,136.32,18.58Z"/><path class="cls-7" d="M154.18,42.39,155,39.1c.32-1.29.59-2.3.89-3.47l-.05,0c-1,.52-2,.89-3.16,1.36l-3.1,1.24-4.91-4.48L155.46,31l1.71-10.66,5,4.53L161.26,28c-.31,1.18-.61,2.12-1,3.21l.07.06c1.16-.56,1.95-.92,3-1.36l3-1.25,4.91,4.49-10.4,2.59L159.17,47Z"/><path class="cls-7" d="M177.89,41.77,163.62,53.18,160,48.61l14.28-11.4Z"/><path class="cls-7" d="M165.9,55.67l15.88-9,3.41,6L182,58.41a50.9,50.9,0,0,1-3.87,6.15l0,.08a56.88,56.88,0,0,1,6.47-4.19l3.76-2.13L191.07,63l-15.88,9-3.06-5.36,3.45-6.22A69.15,69.15,0,0,1,179.5,54l-.05-.1c-2.07,1.34-4.43,2.77-7,4.24l-3.9,2.22Z"/><path class="cls-7" d="M183.1,92.66a30.61,30.61,0,0,1-3.32-6.85c-1.32-4.07-1.38-7.14-.48-9.49a8.12,8.12,0,0,1,5.31-5c6-1.93,10.86,2.44,13,9.17a18.69,18.69,0,0,1,1.1,6.3l-4.08.09a14.64,14.64,0,0,0-.87-5.17c-1.11-3.43-3.53-5.78-7.07-4.63-3.23,1-4.3,4.18-3.2,7.58a7.89,7.89,0,0,0,.72,1.7l3-1-.9-2.78L190,81.43l2.64,8.14Z"/><path class="cls-7" d="M44.77,234.52l10,9.8L52,247.18l-5.83-5.71-2.36,2.4,5.49,5.38-2.77,2.83L41,246.7l-4.86,5L32,247.58Z"/><path class="cls-7" d="M64.21,251,53.89,266.06l-4.83-3.3,10.33-15.08Z"/><path class="cls-7" d="M71.48,259.6l-5.15-2.1,1.55-3.8,15.81,6.44L82.14,264l-5.25-2.14-5.35,13.11-5.41-2.2Z"/><path class="cls-7" d="M86.48,279.42l.87-18.25,6.89.33,3.19,5.76a50.46,50.46,0,0,1,3.12,6.57h.09a57.69,57.69,0,0,1-.07-7.7l.2-4.32,5.34.26-.87,18.25L99.08,280l-3.41-6.25A67.73,67.73,0,0,1,92.31,267H92.2c0,2.47,0,5.22-.17,8.19l-.22,4.48Z"/><path class="cls-7" d="M127.36,267.49l-7.51,2.27,1,3.22,8.4-2.53,1.15,3.83-14,4.22L111.1,261l13.55-4.1,1.16,3.83-8,2.4.85,2.83,7.51-2.27Z"/><path class="cls-7" d="M136.82,265.76a15.49,15.49,0,0,0,5.38-2.08c1.69-1.07,2.21-2.09,1.72-2.87s-1.58-.65-4,.08c-3.69,1.05-6.67.93-8.13-1.37-1.73-2.73-.31-6.57,4.34-9.52a16.64,16.64,0,0,1,5.48-2.38l1.07,4a13.34,13.34,0,0,0-4.47,1.81c-1.5,1-2,1.94-1.61,2.62s1.68.48,4.46-.27c4-1.09,6.4-.55,7.76,1.6,1.7,2.67.66,6.5-4.72,9.92a18.47,18.47,0,0,1-6,2.51Z"/><path class="cls-7" d="M155.47,252.56a15.52,15.52,0,0,0,4.79-3.21c1.41-1.42,1.7-2.53,1-3.18s-1.67-.29-3.91,1c-3.37,1.83-6.31,2.37-8.24.45-2.29-2.28-1.75-6.33,2.14-10.24a16.79,16.79,0,0,1,4.83-3.53l1.91,3.63a13.29,13.29,0,0,0-4,2.75c-1.26,1.26-1.56,2.34-1,2.91s1.74.1,4.3-1.25c3.63-1.94,6.12-1.94,7.92-.14,2.24,2.22,2.07,6.2-2.42,10.71a18.27,18.27,0,0,1-5.32,3.77Z"/></g></g></svg>