<svg xmlns="http://www.w3.org/2000/svg" viewBox="0 0 269.23 191.96"><defs><style>.cls-1{fill:#f4f40f;}.cls-2{font-size:70px;}.cls-2,.cls-9{fill:blue;}.cls-2,.cls-4{font-family:FranklinGothic-Heavy, Franklin Gothic Heavy;font-weight:800;}.cls-3{fill:#cc0;}.cls-4{font-size:40px;fill:#0f0ff4;}.cls-5{letter-spacing:-0.04em;}.cls-6{letter-spacing:0.01em;}.cls-7{letter-spacing:-0.02em;}.cls-8{fill:none;stroke:#0f0ff4;stroke-miterlimit:10;}.cls-9{font-size:21.73px;font-family:Corbel;}.cls-10{letter-spacing:-0.01em;}.cls-11{letter-spacing:-0.04em;}</style></defs><g id="Layer_2" data-name="Layer 2"><g id="Layer_1-2" data-name="Layer 1"><path class="cls-1" d="M161.32,169.23a79.08,79.08,0,1,0-134.54,0Z"/><polyline class="cls-1" points="69.91 94.32 0 69.05 73.18 82.11 25.27 25.27 82.11 73.18 69.05 0 94.32 69.91 119.59 0 106.53 73.18 163.37 25.27 115.46 82.11 188.64 69.05 118.73 94.32"/><text class="cls-2" transform="translate(9.62 169.66)">W</text><path class="cls-3" d="M110.17,88.23c18.39-17.53,31.58-18.16,39.52-15.46C110.57,50.93,68.5,79.15,53.75,90.83A210.09,210.09,0,0,1,110.17,88.23Z"/><path class="cls-3" d="M110.86,89.43A207.42,207.42,0,0,0,57,91.82a172.32,172.32,0,0,0-37.88,11.45s58.08-15.44,134.4,66.49H264.17V144.22S193.11,96,110.86,89.43Z"/><text class="cls-4" transform="translate(64.51 169.26)"><tspan class="cls-5">A</tspan><tspan x="23.98" y="0">TE</tspan><tspan class="cls-6" x="66.09" y="0">R</tspan><tspan x="93.93" y="0">T</tspan><tspan class="cls-7" x="112.73" y="0">O</tspan><tspan x="139.69" y="0">WN</tspan></text><line class="cls-8" x1="22.71" y1="169.46" x2="266.43" y2="169.46"/><text class="cls-9" transform="translate(21.08 186.76)"><tspan class="cls-10">O</tspan><tspan x="15.66" y="0">VERCOMING</tspan><tspan class="cls-11" x="135.23" y="0"> </tspan><tspan x="138.62" y="0">ADDICTION</tspan></text></g></g></svg>